<svg width="373" height="46" viewBox="0 0 373 46" fill="none" xmlns="http://www.w3.org/2000/svg">
<path d="M11.2734 30.5859L18.0703 1.875H21.8672L22.7344 6.65625L15.4922 36H11.4141L11.2734 30.5859ZM7.78125 1.875L13.4062 30.5859L12.9375 36H8.39062L0.820312 1.875H7.78125ZM28.7109 30.4688L34.2656 1.875H41.2266L33.6797 36H29.1328L28.7109 30.4688ZM24 1.875L30.8438 30.7031L30.6562 36H26.5781L19.2891 6.63281L20.2266 1.875H24ZM57.5156 30.2812V18.9844C57.5156 18.1719 57.3828 17.4766 57.1172 16.8984C56.8516 16.3047 56.4375 15.8438 55.875 15.5156C55.3281 15.1875 54.6172 15.0234 53.7422 15.0234C52.9922 15.0234 52.3438 15.1562 51.7969 15.4219C51.25 15.6719 50.8281 16.0391 50.5312 16.5234C50.2344 16.9922 50.0859 17.5469 50.0859 18.1875H43.3359C43.3359 17.1094 43.5859 16.0859 44.0859 15.1172C44.5859 14.1484 45.3125 13.2969 46.2656 12.5625C47.2188 11.8125 48.3516 11.2266 49.6641 10.8047C50.9922 10.3828 52.4766 10.1719 54.1172 10.1719C56.0859 10.1719 57.8359 10.5 59.3672 11.1562C60.8984 11.8125 62.1016 12.7969 62.9766 14.1094C63.8672 15.4219 64.3125 17.0625 64.3125 19.0312V29.8828C64.3125 31.2734 64.3984 32.4141 64.5703 33.3047C64.7422 34.1797 64.9922 34.9453 65.3203 35.6016V36H58.5C58.1719 35.3125 57.9219 34.4531 57.75 33.4219C57.5938 32.375 57.5156 31.3281 57.5156 30.2812ZM58.4062 20.5547L58.4531 24.375H54.6797C53.7891 24.375 53.0156 24.4766 52.3594 24.6797C51.7031 24.8828 51.1641 25.1719 50.7422 25.5469C50.3203 25.9062 50.0078 26.3281 49.8047 26.8125C49.6172 27.2969 49.5234 27.8281 49.5234 28.4062C49.5234 28.9844 49.6562 29.5078 49.9219 29.9766C50.1875 30.4297 50.5703 30.7891 51.0703 31.0547C51.5703 31.3047 52.1562 31.4297 52.8281 31.4297C53.8438 31.4297 54.7266 31.2266 55.4766 30.8203C56.2266 30.4141 56.8047 29.9141 57.2109 29.3203C57.6328 28.7266 57.8516 28.1641 57.8672 27.6328L59.6484 30.4922C59.3984 31.1328 59.0547 31.7969 58.6172 32.4844C58.1953 33.1719 57.6562 33.8203 57 34.4297C56.3438 35.0234 55.5547 35.5156 54.6328 35.9062C53.7109 36.2812 52.6172 36.4688 51.3516 36.4688C49.7422 36.4688 48.2812 36.1484 46.9688 35.5078C45.6719 34.8516 44.6406 33.9531 43.875 32.8125C43.125 31.6562 42.75 30.3438 42.75 28.875C42.75 27.5469 43 26.3672 43.5 25.3359C44 24.3047 44.7344 23.4375 45.7031 22.7344C46.6875 22.0156 47.9141 21.4766 49.3828 21.1172C50.8516 20.7422 52.5547 20.5547 54.4922 20.5547H58.4062ZM85.5703 10.6406H91.6875V35.1562C91.6875 37.4688 91.1719 39.4297 90.1406 41.0391C89.125 42.6641 87.7031 43.8906 85.875 44.7188C84.0469 45.5625 81.9219 45.9844 79.5 45.9844C78.4375 45.9844 77.3125 45.8438 76.125 45.5625C74.9531 45.2812 73.8281 44.8438 72.75 44.25C71.6875 43.6562 70.7969 42.9062 70.0781 42L73.0547 38.0156C73.8359 38.9219 74.7422 39.625 75.7734 40.125C76.8047 40.6406 77.9453 40.8984 79.1953 40.8984C80.4141 40.8984 81.4453 40.6719 82.2891 40.2188C83.1328 39.7812 83.7812 39.1328 84.2344 38.2734C84.6875 37.4297 84.9141 36.4062 84.9141 35.2031V16.5L85.5703 10.6406ZM68.5078 23.625V23.1328C68.5078 21.1953 68.7422 19.4375 69.2109 17.8594C69.6953 16.2656 70.375 14.8984 71.25 13.7578C72.1406 12.6172 73.2188 11.7344 74.4844 11.1094C75.75 10.4844 77.1797 10.1719 78.7734 10.1719C80.4609 10.1719 81.875 10.4844 83.0156 11.1094C84.1562 11.7344 85.0938 12.625 85.8281 13.7812C86.5625 14.9219 87.1328 16.2734 87.5391 17.8359C87.9609 19.3828 88.2891 21.0781 88.5234 22.9219V24C88.2891 25.7656 87.9375 27.4062 87.4688 28.9219C87 30.4375 86.3828 31.7656 85.6172 32.9062C84.8516 34.0312 83.8984 34.9062 82.7578 35.5312C81.6328 36.1562 80.2891 36.4688 78.7266 36.4688C77.1641 36.4688 75.75 36.1484 74.4844 35.5078C73.2344 34.8672 72.1641 33.9688 71.2734 32.8125C70.3828 31.6562 69.6953 30.2969 69.2109 28.7344C68.7422 27.1719 68.5078 25.4688 68.5078 23.625ZM75.2578 23.1328V23.625C75.2578 24.6719 75.3594 25.6484 75.5625 26.5547C75.7656 27.4609 76.0781 28.2656 76.5 28.9688C76.9375 29.6562 77.4766 30.1953 78.1172 30.5859C78.7734 30.9609 79.5469 31.1484 80.4375 31.1484C81.6719 31.1484 82.6797 30.8906 83.4609 30.375C84.2422 29.8438 84.8281 29.1172 85.2188 28.1953C85.6094 27.2734 85.8359 26.2109 85.8984 25.0078V21.9375C85.8672 20.9531 85.7344 20.0703 85.5 19.2891C85.2656 18.4922 84.9375 17.8125 84.5156 17.25C84.0938 16.6875 83.5469 16.25 82.875 15.9375C82.2031 15.625 81.4062 15.4688 80.4844 15.4688C79.5938 15.4688 78.8203 15.6719 78.1641 16.0781C77.5234 16.4688 76.9844 17.0078 76.5469 17.6953C76.125 18.3828 75.8047 19.1953 75.5859 20.1328C75.3672 21.0547 75.2578 22.0547 75.2578 23.1328ZM103.547 16.0547V36H96.7969V10.6406H103.125L103.547 16.0547ZM102.562 22.4297H100.734C100.734 20.5547 100.977 18.8672 101.461 17.3672C101.945 15.8516 102.625 14.5625 103.5 13.5C104.375 12.4219 105.414 11.6016 106.617 11.0391C107.836 10.4609 109.195 10.1719 110.695 10.1719C111.883 10.1719 112.969 10.3438 113.953 10.6875C114.938 11.0312 115.781 11.5781 116.484 12.3281C117.203 13.0781 117.75 14.0703 118.125 15.3047C118.516 16.5391 118.711 18.0469 118.711 19.8281V36H111.914V19.8047C111.914 18.6797 111.758 17.8047 111.445 17.1797C111.133 16.5547 110.672 16.1172 110.062 15.8672C109.469 15.6016 108.734 15.4688 107.859 15.4688C106.953 15.4688 106.164 15.6484 105.492 16.0078C104.836 16.3672 104.289 16.8672 103.852 17.5078C103.43 18.1328 103.109 18.8672 102.891 19.7109C102.672 20.5547 102.562 21.4609 102.562 22.4297ZM135.516 36.4688C133.547 36.4688 131.781 36.1562 130.219 35.5312C128.656 34.8906 127.328 34.0078 126.234 32.8828C125.156 31.7578 124.328 30.4531 123.75 28.9688C123.172 27.4688 122.883 25.875 122.883 24.1875V23.25C122.883 21.3281 123.156 19.5703 123.703 17.9766C124.25 16.3828 125.031 15 126.047 13.8281C127.078 12.6562 128.328 11.7578 129.797 11.1328C131.266 10.4922 132.922 10.1719 134.766 10.1719C136.562 10.1719 138.156 10.4688 139.547 11.0625C140.938 11.6562 142.102 12.5 143.039 13.5938C143.992 14.6875 144.711 16 145.195 17.5312C145.68 19.0469 145.922 20.7344 145.922 22.5938V25.4062H125.766V20.9062H139.289V20.3906C139.289 19.4531 139.117 18.6172 138.773 17.8828C138.445 17.1328 137.945 16.5391 137.273 16.1016C136.602 15.6641 135.742 15.4453 134.695 15.4453C133.805 15.4453 133.039 15.6406 132.398 16.0312C131.758 16.4219 131.234 16.9688 130.828 17.6719C130.438 18.375 130.141 19.2031 129.938 20.1562C129.75 21.0938 129.656 22.125 129.656 23.25V24.1875C129.656 25.2031 129.797 26.1406 130.078 27C130.375 27.8594 130.789 28.6016 131.32 29.2266C131.867 29.8516 132.523 30.3359 133.289 30.6797C134.07 31.0234 134.953 31.1953 135.938 31.1953C137.156 31.1953 138.289 30.9609 139.336 30.4922C140.398 30.0078 141.312 29.2812 142.078 28.3125L145.359 31.875C144.828 32.6406 144.102 33.375 143.18 34.0781C142.273 34.7812 141.18 35.3594 139.898 35.8125C138.617 36.25 137.156 36.4688 135.516 36.4688ZM156.516 16.1719V36H149.766V10.6406H156.117L156.516 16.1719ZM164.156 10.4766L164.039 16.7344C163.711 16.6875 163.312 16.6484 162.844 16.6172C162.391 16.5703 161.977 16.5469 161.602 16.5469C160.648 16.5469 159.82 16.6719 159.117 16.9219C158.43 17.1562 157.852 17.5078 157.383 17.9766C156.93 18.4453 156.586 19.0156 156.352 19.6875C156.133 20.3594 156.008 21.125 155.977 21.9844L154.617 21.5625C154.617 19.9219 154.781 18.4141 155.109 17.0391C155.438 15.6484 155.914 14.4375 156.539 13.4062C157.18 12.375 157.961 11.5781 158.883 11.0156C159.805 10.4531 160.859 10.1719 162.047 10.1719C162.422 10.1719 162.805 10.2031 163.195 10.2656C163.586 10.3125 163.906 10.3828 164.156 10.4766ZM193.008 23.8359H184.312V18.3516H193.008C194.352 18.3516 195.445 18.1328 196.289 17.6953C197.133 17.2422 197.75 16.6172 198.141 15.8203C198.531 15.0234 198.727 14.125 198.727 13.125C198.727 12.1094 198.531 11.1641 198.141 10.2891C197.75 9.41406 197.133 8.71094 196.289 8.17969C195.445 7.64844 194.352 7.38281 193.008 7.38281H186.75V36H179.719V1.875H193.008C195.68 1.875 197.969 2.35938 199.875 3.32812C201.797 4.28125 203.266 5.60156 204.281 7.28906C205.297 8.97656 205.805 10.9062 205.805 13.0781C205.805 15.2812 205.297 17.1875 204.281 18.7969C203.266 20.4062 201.797 21.6484 199.875 22.5234C197.969 23.3984 195.68 23.8359 193.008 23.8359ZM216.984 16.1719V36H210.234V10.6406H216.586L216.984 16.1719ZM224.625 10.4766L224.508 16.7344C224.18 16.6875 223.781 16.6484 223.312 16.6172C222.859 16.5703 222.445 16.5469 222.07 16.5469C221.117 16.5469 220.289 16.6719 219.586 16.9219C218.898 17.1562 218.32 17.5078 217.852 17.9766C217.398 18.4453 217.055 19.0156 216.82 19.6875C216.602 20.3594 216.477 21.125 216.445 21.9844L215.086 21.5625C215.086 19.9219 215.25 18.4141 215.578 17.0391C215.906 15.6484 216.383 14.4375 217.008 13.4062C217.648 12.375 218.43 11.5781 219.352 11.0156C220.273 10.4531 221.328 10.1719 222.516 10.1719C222.891 10.1719 223.273 10.2031 223.664 10.2656C224.055 10.3125 224.375 10.3828 224.625 10.4766ZM239.016 36.4688C237.047 36.4688 235.281 36.1562 233.719 35.5312C232.156 34.8906 230.828 34.0078 229.734 32.8828C228.656 31.7578 227.828 30.4531 227.25 28.9688C226.672 27.4688 226.383 25.875 226.383 24.1875V23.25C226.383 21.3281 226.656 19.5703 227.203 17.9766C227.75 16.3828 228.531 15 229.547 13.8281C230.578 12.6562 231.828 11.7578 233.297 11.1328C234.766 10.4922 236.422 10.1719 238.266 10.1719C240.062 10.1719 241.656 10.4688 243.047 11.0625C244.438 11.6562 245.602 12.5 246.539 13.5938C247.492 14.6875 248.211 16 248.695 17.5312C249.18 19.0469 249.422 20.7344 249.422 22.5938V25.4062H229.266V20.9062H242.789V20.3906C242.789 19.4531 242.617 18.6172 242.273 17.8828C241.945 17.1328 241.445 16.5391 240.773 16.1016C240.102 15.6641 239.242 15.4453 238.195 15.4453C237.305 15.4453 236.539 15.6406 235.898 16.0312C235.258 16.4219 234.734 16.9688 234.328 17.6719C233.938 18.375 233.641 19.2031 233.438 20.1562C233.25 21.0938 233.156 22.125 233.156 23.25V24.1875C233.156 25.2031 233.297 26.1406 233.578 27C233.875 27.8594 234.289 28.6016 234.82 29.2266C235.367 29.8516 236.023 30.3359 236.789 30.6797C237.57 31.0234 238.453 31.1953 239.438 31.1953C240.656 31.1953 241.789 30.9609 242.836 30.4922C243.898 30.0078 244.812 29.2812 245.578 28.3125L248.859 31.875C248.328 32.6406 247.602 33.375 246.68 34.0781C245.773 34.7812 244.68 35.3594 243.398 35.8125C242.117 36.25 240.656 36.4688 239.016 36.4688ZM266.977 28.9922C266.977 28.5078 266.836 28.0703 266.555 27.6797C266.273 27.2891 265.75 26.9297 264.984 26.6016C264.234 26.2578 263.148 25.9453 261.727 25.6641C260.445 25.3828 259.25 25.0312 258.141 24.6094C257.047 24.1719 256.094 23.6484 255.281 23.0391C254.484 22.4297 253.859 21.7109 253.406 20.8828C252.953 20.0391 252.727 19.0781 252.727 18C252.727 16.9375 252.953 15.9375 253.406 15C253.875 14.0625 254.539 13.2344 255.398 12.5156C256.273 11.7812 257.336 11.2109 258.586 10.8047C259.852 10.3828 261.273 10.1719 262.852 10.1719C265.055 10.1719 266.945 10.5234 268.523 11.2266C270.117 11.9297 271.336 12.8984 272.18 14.1328C273.039 15.3516 273.469 16.7422 273.469 18.3047H266.719C266.719 17.6484 266.578 17.0625 266.297 16.5469C266.031 16.0156 265.609 15.6016 265.031 15.3047C264.469 14.9922 263.734 14.8359 262.828 14.8359C262.078 14.8359 261.43 14.9688 260.883 15.2344C260.336 15.4844 259.914 15.8281 259.617 16.2656C259.336 16.6875 259.195 17.1562 259.195 17.6719C259.195 18.0625 259.273 18.4141 259.43 18.7266C259.602 19.0234 259.875 19.2969 260.25 19.5469C260.625 19.7969 261.109 20.0312 261.703 20.25C262.312 20.4531 263.062 20.6406 263.953 20.8125C265.781 21.1875 267.414 21.6797 268.852 22.2891C270.289 22.8828 271.43 23.6953 272.273 24.7266C273.117 25.7422 273.539 27.0781 273.539 28.7344C273.539 29.8594 273.289 30.8906 272.789 31.8281C272.289 32.7656 271.57 33.5859 270.633 34.2891C269.695 34.9766 268.57 35.5156 267.258 35.9062C265.961 36.2812 264.5 36.4688 262.875 36.4688C260.516 36.4688 258.516 36.0469 256.875 35.2031C255.25 34.3594 254.016 33.2891 253.172 31.9922C252.344 30.6797 251.93 29.3359 251.93 27.9609H258.328C258.359 28.8828 258.594 29.625 259.031 30.1875C259.484 30.75 260.055 31.1562 260.742 31.4062C261.445 31.6562 262.203 31.7812 263.016 31.7812C263.891 31.7812 264.617 31.6641 265.195 31.4297C265.773 31.1797 266.211 30.8516 266.508 30.4453C266.82 30.0234 266.977 29.5391 266.977 28.9922ZM290.344 10.6406V15.4219H275.578V10.6406H290.344ZM279.234 4.38281H285.984V28.3594C285.984 29.0938 286.078 29.6562 286.266 30.0469C286.469 30.4375 286.766 30.7109 287.156 30.8672C287.547 31.0078 288.039 31.0781 288.633 31.0781C289.055 31.0781 289.43 31.0625 289.758 31.0312C290.102 30.9844 290.391 30.9375 290.625 30.8906L290.648 35.8594C290.07 36.0469 289.445 36.1953 288.773 36.3047C288.102 36.4141 287.359 36.4688 286.547 36.4688C285.062 36.4688 283.766 36.2266 282.656 35.7422C281.562 35.2422 280.719 34.4453 280.125 33.3516C279.531 32.2578 279.234 30.8203 279.234 29.0391V4.38281ZM300.938 16.1719V36H294.188V10.6406H300.539L300.938 16.1719ZM308.578 10.4766L308.461 16.7344C308.133 16.6875 307.734 16.6484 307.266 16.6172C306.812 16.5703 306.398 16.5469 306.023 16.5469C305.07 16.5469 304.242 16.6719 303.539 16.9219C302.852 17.1562 302.273 17.5078 301.805 17.9766C301.352 18.4453 301.008 19.0156 300.773 19.6875C300.555 20.3594 300.43 21.125 300.398 21.9844L299.039 21.5625C299.039 19.9219 299.203 18.4141 299.531 17.0391C299.859 15.6484 300.336 14.4375 300.961 13.4062C301.602 12.375 302.383 11.5781 303.305 11.0156C304.227 10.4531 305.281 10.1719 306.469 10.1719C306.844 10.1719 307.227 10.2031 307.617 10.2656C308.008 10.3125 308.328 10.3828 308.578 10.4766ZM322.969 36.4688C321 36.4688 319.234 36.1562 317.672 35.5312C316.109 34.8906 314.781 34.0078 313.688 32.8828C312.609 31.7578 311.781 30.4531 311.203 28.9688C310.625 27.4688 310.336 25.875 310.336 24.1875V23.25C310.336 21.3281 310.609 19.5703 311.156 17.9766C311.703 16.3828 312.484 15 313.5 13.8281C314.531 12.6562 315.781 11.7578 317.25 11.1328C318.719 10.4922 320.375 10.1719 322.219 10.1719C324.016 10.1719 325.609 10.4688 327 11.0625C328.391 11.6562 329.555 12.5 330.492 13.5938C331.445 14.6875 332.164 16 332.648 17.5312C333.133 19.0469 333.375 20.7344 333.375 22.5938V25.4062H313.219V20.9062H326.742V20.3906C326.742 19.4531 326.57 18.6172 326.227 17.8828C325.898 17.1328 325.398 16.5391 324.727 16.1016C324.055 15.6641 323.195 15.4453 322.148 15.4453C321.258 15.4453 320.492 15.6406 319.852 16.0312C319.211 16.4219 318.688 16.9688 318.281 17.6719C317.891 18.375 317.594 19.2031 317.391 20.1562C317.203 21.0938 317.109 22.125 317.109 23.25V24.1875C317.109 25.2031 317.25 26.1406 317.531 27C317.828 27.8594 318.242 28.6016 318.773 29.2266C319.32 29.8516 319.977 30.3359 320.742 30.6797C321.523 31.0234 322.406 31.1953 323.391 31.1953C324.609 31.1953 325.742 30.9609 326.789 30.4922C327.852 30.0078 328.766 29.2812 329.531 28.3125L332.812 31.875C332.281 32.6406 331.555 33.375 330.633 34.0781C329.727 34.7812 328.633 35.3594 327.352 35.8125C326.07 36.25 324.609 36.4688 322.969 36.4688ZM344.344 0V36H337.57V0H344.344ZM348.844 23.5781V23.0859C348.844 21.2266 349.109 19.5156 349.641 17.9531C350.172 16.375 350.945 15.0078 351.961 13.8516C352.977 12.6953 354.227 11.7969 355.711 11.1562C357.195 10.5 358.898 10.1719 360.82 10.1719C362.742 10.1719 364.453 10.5 365.953 11.1562C367.453 11.7969 368.711 12.6953 369.727 13.8516C370.758 15.0078 371.539 16.375 372.07 17.9531C372.602 19.5156 372.867 21.2266 372.867 23.0859V23.5781C372.867 25.4219 372.602 27.1328 372.07 28.7109C371.539 30.2734 370.758 31.6406 369.727 32.8125C368.711 33.9688 367.461 34.8672 365.977 35.5078C364.492 36.1484 362.789 36.4688 360.867 36.4688C358.945 36.4688 357.234 36.1484 355.734 35.5078C354.25 34.8672 352.992 33.9688 351.961 32.8125C350.945 31.6406 350.172 30.2734 349.641 28.7109C349.109 27.1328 348.844 25.4219 348.844 23.5781ZM355.594 23.0859V23.5781C355.594 24.6406 355.688 25.6328 355.875 26.5547C356.062 27.4766 356.359 28.2891 356.766 28.9922C357.188 29.6797 357.734 30.2188 358.406 30.6094C359.078 31 359.898 31.1953 360.867 31.1953C361.805 31.1953 362.609 31 363.281 30.6094C363.953 30.2188 364.492 29.6797 364.898 28.9922C365.305 28.2891 365.602 27.4766 365.789 26.5547C365.992 25.6328 366.094 24.6406 366.094 23.5781V23.0859C366.094 22.0547 365.992 21.0859 365.789 20.1797C365.602 19.2578 365.297 18.4453 364.875 17.7422C364.469 17.0234 363.93 16.4609 363.258 16.0547C362.586 15.6484 361.773 15.4453 360.82 15.4453C359.867 15.4453 359.055 15.6484 358.383 16.0547C357.727 16.4609 357.188 17.0234 356.766 17.7422C356.359 18.4453 356.062 19.2578 355.875 20.1797C355.688 21.0859 355.594 22.0547 355.594 23.0859Z" fill="#141414"/>
</svg>
